<?xml version="1.0"?><svg width="1603.1562" height="1603.1562" xmlns="http://www.w3.org/2000/svg">

 <metadata id="metadata2403">image/svg+xmlIslamic artIslamic art outline geometric figureMohamed IbrahimPublic domainclker.com</metadata>
 <g>
  <title>Layer 1</title>
  <g id="layer1">
   <path fill="#ffffff" fill-rule="evenodd" stroke="#000000" stroke-width="5" stroke-linecap="round" stroke-linejoin="round" stroke-miterlimit="4" stroke-dashoffset="0" id="rect3384" d="m759.031311,2.5l-42.5625,73.718811l-94.593811,54.625l-109.25,0l-73.718689,-42.562607l-24.5625,42.562607l-49.156189,0l0,85.125l-54.625,94.593689l-94.593811,54.625l-85.125,0l0,49.156311l-42.5625,24.562378l42.5625,73.718811l0,109.218811l-54.656189,94.625l-73.687622,42.562378l24.562622,42.562622l-24.562622,42.531189l73.687622,42.531189l54.656189,94.656311l0,109.21875l-42.5625,73.71875l42.5625,24.5625l0,49.156372l85.125,0l94.593811,54.625l54.625,94.59375l0,85.125l49.156189,0l24.5625,42.5625l73.718689,-42.5625l109.218811,0l94.625,54.625l42.5625,73.718628l42.5625,-24.562378l42.5625,24.562378l42.5625,-73.718628l94.593811,-54.625l109.21875,0l73.718628,42.5625l24.562622,-42.5625l49.15625,0l0,-85.125l54.625,-94.59375l94.59375,-54.625l85.125,0l0,-49.156372l42.562378,-24.5625l-42.562378,-73.71875l0,-109.21875l54.656128,-94.625l73.6875,-42.5625l-24.5625,-42.5625l24.5625,-42.531311l-73.6875,-42.531189l-54.656128,-94.656189l0,-109.218811l42.562378,-73.718811l-42.562378,-24.562378l0,-49.156311l-85.125,0l-94.59375,-54.625l-54.625,-94.593689l0,-85.125l-49.15625,0l-24.562622,-42.562607l-73.718628,42.562607l-109.21875,0l-94.593811,-54.625l-42.5625,-73.718811l-42.5625,24.5625l-42.5625,-24.5625zm42.5625,75.906204l45.531189,26.281296l15.093811,26.156311l-121.281189,0l15.093689,-26.156311l45.5625,-26.281296zm-361.625,96.875l52.625,0l26.156189,15.093796l-105.062378,60.6875l0,-30.218689l26.281189,-45.562607zm193.8125,0l25.5,0l-17.4375,30.156296l-30.156189,-17.406296l22.093689,-12.75zm81.5,0l172.593689,0l31.437622,54.437607l-117.75,67.968689l-117.718811,-67.968689l31.4375,-54.437607zm228.656311,0l25.468689,0l22.093689,12.75l-30.156189,17.406296l-17.406189,-30.156296zm166.625,0l52.625,0l26.28125,45.531296l0,30.218704l-105.03125,-60.656204l26.125,-15.093796zm-547.406311,40.75l54.4375,31.437607l-67.968811,117.718689l-135.937378,0l0,-62.843689l149.468689,-86.312607zm476.843689,0l149.468872,86.312607l0,62.843689l-135.90625,0l-67.968811,-117.75l54.406189,-31.406296zm-380.406189,55.687607l93.468811,53.968689l-68.406311,39.5l-79.031311,0l53.968811,-93.468689zm283.968811,0l53.968689,93.468689l-79.031311,0l-68.406189,-39.5l93.468811,-53.968689zm-578.375,58.625l0,34.843689l-34.843811,0l12.75,-22.093689l22.093811,-12.75zm872.78125,0l22.09375,12.75l12.75,22.093689l-34.84375,0l0,-34.843689zm-436.40625,23.343689l19.937378,11.5l-39.843689,0l19.906311,-11.5zm-580.75,60l30.218689,0l-60.656311,105.031311l-15.093689,-26.125l0,-52.625l45.531311,-26.281311zm81.531189,0l62.843811,0l0,135.9375l-117.718811,67.968811l-31.4375,-54.437622l86.3125,-149.468689zm111.343811,0l107.937378,0l-39.5,68.4375l-68.437378,39.5l0,-107.9375zm163.937378,0l23.031311,0l-34.531311,19.9375l11.5,-19.9375zm120.031311,0l207.843689,0l180.031372,103.9375l103.9375,180.031189l0,207.843811l-103.9375,180.03125l-180.031372,103.937622l-207.843689,0l-180.031311,-103.937622l-103.937378,-180.03125l0,-207.843811l103.937378,-180.031189l180.031311,-103.9375zm304.843689,0l23.031372,0l11.5,19.9375l-34.531372,-19.9375zm79.062622,0l107.90625,0l0,107.9375l-68.40625,-39.5l-39.5,-68.4375zm156.40625,0l62.84375,0l86.312378,149.468689l-31.437378,54.437622l-117.71875,-67.968811l0,-135.9375zm114.156128,0l30.218872,0l45.531128,26.281311l0,52.625l-15.093628,26.125l-60.656372,-105.031311zm-918.5,152.4375l-19.937378,34.531189l0,-23.031189l19.937378,-11.5zm735.937622,0.031189l19.90625,11.5l0,22.968811l-19.90625,-34.468811zm-804.375,39.468811l0,79.031189l-39.5,68.406311l-53.968811,-93.468689l93.468811,-53.968811zm872.78125,0.031189l93.46875,53.937622l-53.96875,93.468689l-39.5,-68.406311l0,-79zm-1049.937561,6.031311l17.406311,30.156311l-30.156311,17.437378l0,-25.5l12.75,-22.093689zm1227.093689,0l12.75,22.0625l0,25.531189l-30.187378,-17.406189l17.437378,-30.1875zm-1185.406189,72.1875l67.968811,117.6875l-67.968811,117.75l-54.4375,-31.4375l0,-172.593811l54.4375,-31.406189zm1143.718811,0l54.437378,31.406189l0,172.593811l-54.437378,31.406189l-67.937622,-117.687378l67.937622,-117.718811zm-1242.593811,57.0625l0,121.281311l-26.156189,-15.093811l-26.281311,-45.531189l26.281311,-45.562622l26.156189,-15.093689zm1341.468811,0l26.156128,15.093689l26.28125,45.531311l-26.28125,45.5625l-26.156128,15.093811l0,-121.281311zm-1107.125,40.718689l0,39.812622l-11.5,-19.906311l11.5,-19.906311zm872.78125,0.031311l11.5,19.906311l-11.5,19.906189l0,-39.8125zm-912.28125,68.406311l39.5,68.406189l0,79.031189l-93.468811,-53.968689l53.968811,-93.468689zm951.78125,0l53.96875,93.468689l-93.46875,53.968689l0,-79l39.5,-68.437378zm-1102.187561,93.781189l30.1875,17.4375l-17.4375,30.1875l-12.75,-22.093811l0,-25.531189zm1252.593689,0l0,25.5l-12.75,22.093811l-17.406128,-30.156311l30.156128,-17.4375zm-1180.406189,41.6875l117.718811,67.96875l0,135.937622l-62.843811,0l-86.3125,-149.468872l31.4375,-54.4375zm1108.218811,0l31.437378,54.4375l-86.312378,149.468872l-62.84375,0l0,-135.937622l117.71875,-67.96875zm-942,16.9375l19.937378,34.53125l-19.937378,-11.5l0,-23.03125zm775.78125,0.031189l0,23.000061l-19.90625,11.5l19.90625,-34.500061zm0,78.968811l0,107.968872l-107.90625,0l39.5,-68.468872l68.40625,-39.5zm-775.78125,0.03125l68.437378,39.5l39.5,68.437622l-107.937378,0l0,-107.937622zm-223.312622,2.90625l60.656311,105.031372l-30.218689,0l-45.531311,-26.281372l0,-52.625l15.093689,-26.125zm1222.406372,0l15.093628,26.125l0,52.625l-45.531128,26.281372l-30.218872,0l60.656372,-105.031372zm-846.656372,85.09375l34.531311,19.937622l-23.031311,0l-11.5,-19.937622zm470.906372,0l-11.5,19.937622l-23.031372,0l34.531372,-19.937622zm-706.687561,68.437622l34.843811,0l0,34.84375l-22.093811,-12.75l-12.75,-22.09375zm83.343811,0l135.937378,0l67.968811,117.71875l-54.4375,31.4375l-149.468689,-86.3125l0,-62.84375zm191.937378,0l79.031311,0l68.406311,39.5l-93.468811,53.96875l-53.968811,-93.46875zm176.031311,0l39.843689,0l-19.906189,11.5l-19.9375,-11.5zm136.843689,0l79.031311,0l-53.968689,93.46875l-93.468811,-53.96875l68.406189,-39.5zm135.062622,0l135.90625,0l0,62.84375l-149.468872,86.3125l-54.437378,-31.4375l68,-117.71875zm184.40625,0l34.84375,0l-12.75,22.09375l-22.09375,12.75l0,-34.84375zm-436.375061,67.5l117.718811,67.96875l-31.437622,54.4375l-172.593689,0l-31.4375,-54.4375l117.75,-67.96875zm-387.906189,46.65625l105.031189,60.656128l-26.125,15.093872l-52.625,0l-26.281189,-45.53125l0,-30.21875zm775.78125,0l0,30.21875l-26.28125,45.53125l-52.625,0l-26.125,-15.093872l105.03125,-60.656128zm-547.625061,45.5625l17.4375,30.1875l-25.531311,0l-22.093689,-12.75l30.1875,-17.4375zm319.468811,0.03125l30.156189,17.40625l-22.093811,12.75l-25.468689,0l17.406311,-30.15625zm-220.375,74.59375l121.281189,0l-15.093811,26.15625l-45.562378,26.28125l-45.531311,-26.28125l-15.093689,-26.15625z"/>
  </g>
 </g>
</svg>